<svg width="28" height="28" viewBox="0 0 28 28" fill="none" xmlns="http://www.w3.org/2000/svg">
<path d="M8.07031 17.3295L11.5621 12.7924L15.5451 15.919L18.9623 11.509" stroke="#212121" stroke-width="1.5" stroke-linecap="round" stroke-linejoin="round"/>
<path fill-rule="evenodd" clip-rule="evenodd" d="M22.945 2.7417C24.184 2.7417 25.1873 3.74503 25.1873 4.98403C25.1873 6.22187 24.184 7.22637 22.945 7.22637C21.706 7.22637 20.7026 6.22187 20.7026 4.98403C20.7026 3.74503 21.706 2.7417 22.945 2.7417Z" stroke="#212121" stroke-width="1.5" stroke-linecap="round" stroke-linejoin="round"/>
<path d="M24.2149 10.8138C24.3701 11.8579 24.4412 13.0339 24.4412 14.3534C24.4412 22.4478 21.7439 25.1451 13.6496 25.1451C5.55641 25.1451 2.85791 22.4478 2.85791 14.3534C2.85791 6.26027 5.55641 3.56177 13.6496 3.56177C14.9446 3.56177 16.1007 3.6306 17.1297 3.77993" stroke="#212121" stroke-width="1.5" stroke-linecap="round" stroke-linejoin="round"/>
</svg>
