<svg width="28" height="28" viewBox="0 0 28 28" fill="none" xmlns="http://www.w3.org/2000/svg">
<path fill-rule="evenodd" clip-rule="evenodd" d="M14.0002 11.0835C15.6112 11.0835 16.9168 12.3891 16.9168 14.0002C16.9168 15.6112 15.6112 16.9168 14.0002 16.9168C12.3891 16.9168 11.0835 15.6112 11.0835 14.0002C11.0835 12.3891 12.3891 11.0835 14.0002 11.0835Z" stroke="#212121" stroke-width="1.5" stroke-linecap="round" stroke-linejoin="round"/>
<path fill-rule="evenodd" clip-rule="evenodd" d="M23.5295 8.4587V8.4587C22.732 7.06774 20.9666 6.59179 19.5868 7.39503C18.3866 8.09224 16.8866 7.21986 16.8866 5.82429C16.8866 4.21898 15.5937 2.91675 13.9999 2.91675V2.91675C12.4061 2.91675 11.1132 4.21898 11.1132 5.82429C11.1132 7.21986 9.61322 8.09224 8.41416 7.39503C7.03317 6.59179 5.26775 7.06774 4.47028 8.4587C3.67395 9.84967 4.14648 11.6278 5.52747 12.4299C6.72654 13.1283 6.72654 14.8719 5.52747 15.5702C4.14648 16.3735 3.67395 18.1517 4.47028 19.5415C5.26775 20.9324 7.03317 21.4084 8.41301 20.6063H8.41416C9.61322 19.9079 11.1132 20.7803 11.1132 22.1759V22.1759C11.1132 23.7812 12.4061 25.0834 13.9999 25.0834V25.0834C15.5937 25.0834 16.8866 23.7812 16.8866 22.1759V22.1759C16.8866 20.7803 18.3866 19.9079 19.5868 20.6063C20.9666 21.4084 22.732 20.9324 23.5295 19.5415C24.327 18.1517 23.8533 16.3735 22.4734 15.5702H22.4723C21.2732 14.8719 21.2732 13.1283 22.4734 12.4299C23.8533 11.6278 24.327 9.84967 23.5295 8.4587Z" stroke="#212121" stroke-width="1.5" stroke-linecap="round" stroke-linejoin="round"/>
</svg>
